<mxfile host="app.diagrams.net" modified="2024-04-24T09:03:24.154Z" agent="Mozilla/5.0 (Macintosh; Intel Mac OS X 10_15_7) AppleWebKit/605.1.15 (KHTML, like Gecko) Version/17.4.1 Safari/605.1.15" etag="Mo4xaesxFxTR3eDqBXGC" version="24.2.9" type="github">
  <diagram name="Страница — 1" id="JhtNd9AlwU0v45HNGyWB">
    <mxGraphModel dx="984" dy="588" grid="1" gridSize="10" guides="1" tooltips="1" connect="1" arrows="1" fold="1" page="1" pageScale="1" pageWidth="827" pageHeight="1169" math="0" shadow="0">
      <root>
        <mxCell id="0" />
        <mxCell id="1" parent="0" />
        <mxCell id="e8Ut4EIya1tVT318Z422-1" value="Actor" style="shape=umlActor;verticalLabelPosition=bottom;verticalAlign=top;html=1;outlineConnect=0;" vertex="1" parent="1">
          <mxGeometry x="384" y="10" width="30" height="60" as="geometry" />
        </mxCell>
        <mxCell id="e8Ut4EIya1tVT318Z422-2" value="Actor" style="shape=umlActor;verticalLabelPosition=bottom;verticalAlign=top;html=1;outlineConnect=0;" vertex="1" parent="1">
          <mxGeometry x="550" y="330" width="30" height="60" as="geometry" />
        </mxCell>
        <mxCell id="e8Ut4EIya1tVT318Z422-4" value="Внещние системы" style="rounded=1;whiteSpace=wrap;html=1;direction=east;textDirection=vertical-rl;flipV=0;flipH=0;" vertex="1" parent="1">
          <mxGeometry x="30" y="80" width="70" height="270" as="geometry" />
        </mxCell>
      </root>
    </mxGraphModel>
  </diagram>
</mxfile>
